<?xml version="1.0" encoding="UTF-8" standalone="no"?>
<svg
   width="1421"
   height="371"
   viewBox="0 0 1421 371"
   version="1.1"
   id="svg68"
   sodipodi:docname="bella.svg"
   inkscape:version="1.4.3 (0d15f75042, 2025-12-25)"
   xmlns:inkscape="http://www.inkscape.org/namespaces/inkscape"
   xmlns:sodipodi="http://sodipodi.sourceforge.net/DTD/sodipodi-0.dtd"
   xmlns="http://www.w3.org/2000/svg"
   xmlns:svg="http://www.w3.org/2000/svg">
  <sodipodi:namedview
     id="namedview68"
     pagecolor="#ffffff"
     bordercolor="#000000"
     borderopacity="0.25"
     inkscape:showpageshadow="2"
     inkscape:pageopacity="0.0"
     inkscape:pagecheckerboard="0"
     inkscape:deskcolor="#d1d1d1"
     inkscape:zoom="1.2017332"
     inkscape:cx="589.56514"
     inkscape:cy="121.90726"
     inkscape:window-width="2560"
     inkscape:window-height="1368"
     inkscape:window-x="0"
     inkscape:window-y="0"
     inkscape:window-maximized="1"
     inkscape:current-layer="svg68" />
  <defs
     id="defs1" />
  <style
     id="style1">@media (prefers-color-scheme: dark) {
    .nf-metro-section-label { fill: #d0d0d0; }
    .nf-metro-section-num-circle { fill: #777777; }
    .nf-metro-title { fill: #ffffff; }
}
</style>
  <text
     x="60.0"
     y="30.0"
     font-size="26.0"
     fill="#111111"
     font-family="'Helvetica Neue', Helvetica, Arial, sans-serif"
     font-weight="bold"
     class="nf-metro-title"
     id="text1"
     inkscape:export-filename="../images/bella.png"
     inkscape:export-xdpi="96"
     inkscape:export-ydpi="96">Bella Pipeline</text>
  <rect
     x="236.0"
     y="85.0"
     width="605.0"
     height="136.11651689888373"
     rx="8"
     ry="8"
     fill="#ededed"
     stroke="#e6e6e6"
     stroke-width="1.0"
     id="rect1" />
  <circle
     cx="247.0"
     cy="70.0"
     r="11"
     fill="#333333"
     class="nf-metro-section-num-circle"
     id="circle1" />
  <text
     x="247.0"
     y="70.0"
     font-size="12"
     fill="#ffffff"
     font-family="'Helvetica Neue', Helvetica, Arial, sans-serif"
     font-weight="bold"
     text-anchor="middle"
     dy="0.3em"
     id="text2">1</text>
  <text
     x="263.0"
     y="70.0"
     font-size="17.0"
     fill="#666666"
     font-family="'Helvetica Neue', Helvetica, Arial, sans-serif"
     font-weight="bold"
     dy="0.3em"
     class="nf-metro-section-label"
     id="text3">Allele Calling</text>
  <rect
     x="921.0"
     y="85.0"
     width="112.0"
     height="70.0"
     rx="8"
     ry="8"
     fill="#ededed"
     stroke="#e6e6e6"
     stroke-width="1.0"
     id="rect3" />
  <circle
     cx="932.0"
     cy="70.0"
     r="11"
     fill="#333333"
     class="nf-metro-section-num-circle"
     id="circle3" />
  <text
     x="932.0"
     y="70.0"
     font-size="12"
     fill="#ffffff"
     font-family="'Helvetica Neue', Helvetica, Arial, sans-serif"
     font-weight="bold"
     text-anchor="middle"
     dy="0.3em"
     id="text4">2</text>
  <text
     x="948.0"
     y="70.0"
     font-size="17.0"
     fill="#666666"
     font-family="'Helvetica Neue', Helvetica, Arial, sans-serif"
     font-weight="bold"
     dy="0.3em"
     class="nf-metro-section-label"
     id="text5">Clustering</text>
  <rect
     x="1061.0"
     y="85.0"
     width="300.0"
     height="110.0"
     rx="8"
     ry="8"
     fill="#ededed"
     stroke="#e6e6e6"
     stroke-width="1.0"
     id="rect5" />
  <circle
     cx="1072.0"
     cy="70.0"
     r="11"
     fill="#333333"
     class="nf-metro-section-num-circle"
     id="circle5" />
  <text
     x="1072.0"
     y="70.0"
     font-size="12"
     fill="#ffffff"
     font-family="'Helvetica Neue', Helvetica, Arial, sans-serif"
     font-weight="bold"
     text-anchor="middle"
     dy="0.3em"
     id="text6">3</text>
  <text
     x="1088.0"
     y="70.0"
     font-size="17.0"
     fill="#666666"
     font-family="'Helvetica Neue', Helvetica, Arial, sans-serif"
     font-weight="bold"
     dy="0.3em"
     class="nf-metro-section-label"
     id="text7">Reporting</text>
  <path
     d="M632.0,189.11651689888373 L652.0,189.11651689888373 Q662.0,189.11651689888373,668.0,181.11651689888373 L686.0,157.11651689888373 Q692.0,149.11651689888373,702.0,149.11651689888373 L755.0,149.11651689888373"
     stroke="#167204"
     stroke-width="4.0"
     fill="none"
     stroke-linecap="round"
     stroke-linejoin="round"
     id="path7"
     style="stroke-dasharray:4,8;stroke-dashoffset:0" />
  <path
     d="m 314.62517,189.11652 h 96.90092"
     stroke="#167204"
     stroke-width="2.23637"
     stroke-linecap="round"
     id="path8"
     style="stroke-width:4;stroke-dasharray:4, 7.99998;stroke-dashoffset:0" />
  <path
     d="M632.0,178.23303379776746 L786.0,178.23303379776746 Q796.0,178.23303379776746,803.5423741105224,171.6670157672621 L818.4576258894776,158.6825349293891 Q826.0,152.11651689888373,836.0,152.11651689888373 L841.0,152.11651689888373"
     stroke="#2196F3"
     stroke-width="4.0"
     fill="none"
     stroke-linecap="round"
     stroke-linejoin="round"
     id="path9" />
  <path
     d="M1147.0,163.0 L1185.0,163.0 Q1195.0,163.0,1201.0,155.0 L1219.0,131.0 Q1225.0,123.0,1235.0,123.0 L1243.0,123.0"
     stroke="#2196F3"
     stroke-width="4.0"
     fill="none"
     stroke-linecap="round"
     stroke-linejoin="round"
     id="path10" />
  <path
     d="M128.0,163.0 L141.0,163.0 Q151.0,163.0,160.07529242784784,158.80011103134288 L171.92470757215216,153.31640586754085 Q181.0,149.11651689888373,191.0,149.11651689888373 L196.0,149.11651689888373"
     stroke="#167204"
     stroke-width="4.0"
     fill="none"
     stroke-linecap="round"
     stroke-linejoin="round"
     id="path11"
     style="stroke-dasharray:4,8;stroke-dashoffset:0" />
  <path
     d="M322.0,152.11651689888373 L361.5,152.11651689888373 Q371.5,152.11651689888373,379.04237411052236,145.55049886837836 L393.95762588947764,132.56601803050538 Q401.5,126.0,411.5,126.0 L632.0,126.0"
     stroke="#2196F3"
     stroke-width="4.0"
     fill="none"
     stroke-linecap="round"
     stroke-linejoin="round"
     id="path12" />
  <path
     d="M322.0,152.11651689888373 L361.5,152.11651689888373 Q371.5,152.11651689888373,379.04237411052236,158.6825349293891 L393.95762588947764,171.6670157672621 Q401.5,178.23303379776746,411.5,178.23303379776746 L632.0,178.23303379776746"
     stroke="#2196F3"
     stroke-width="4.0"
     fill="none"
     stroke-linecap="round"
     stroke-linejoin="round"
     id="path13" />
  <path
     d="M841.0,152.11651689888373 L851.0,152.11651689888373"
     stroke="#2196F3"
     stroke-width="4.0"
     stroke-linecap="round"
     id="path14" />
  <path
     d="M851.0,152.11651689888373 L851.0,152.11651689888373 Q861.0,152.11651689888373,861.0,162.11651689888373 L861.0,170.0 Q861.0,183.0,874.0,183.0 L1038.0,183.0 Q1051.0,183.0,1051.0,170.0 L1051.0,159.11651689888373 Q1051.0,149.11651689888373,1061.0,149.11651689888373 L1061.0,149.11651689888373"
     stroke="#2196F3"
     stroke-width="4.0"
     fill="none"
     stroke-linecap="round"
     stroke-linejoin="round"
     id="path15" />
  <path
     d="M851.0,152.11651689888373 L851.0,152.11651689888373 Q861.0,152.11651689888373,861.0,162.11651689888373 L861.0,170.0 Q861.0,183.0,874.0,183.0 L1038.0,183.0 Q1051.0,183.0,1051.0,170.0 L1051.0,159.11651689888373 Q1051.0,149.11651689888373,1061.0,149.11651689888373 L1061.0,149.11651689888373"
     stroke="#2196F3"
     stroke-width="4.0"
     fill="none"
     stroke-linecap="round"
     stroke-linejoin="round"
     id="path16" />
  <path
     d="M322.0,149.11651689888373 L361.5,149.11651689888373 Q371.5,149.11651689888373,377.5,157.11651689888373 L395.5,181.11651689888373 Q401.5,189.11651689888373,411.5,189.11651689888373 L632.0,189.11651689888373"
     stroke="#167204"
     stroke-width="4.0"
     fill="none"
     stroke-linecap="round"
     stroke-linejoin="round"
     id="path17"
     style="stroke-dasharray:4,8;stroke-dashoffset:0" />
  <path
     d="M236.0,149.11651689888373 L241.0,149.11651689888373 Q251.0,149.11651689888373,257.0,157.11651689888373 L275.0,181.11651689888373 Q281.0,189.11651689888373,291.0,189.11651689888373 L322.0,189.11651689888373"
     stroke="#167204"
     stroke-width="4.0"
     fill="none"
     stroke-linecap="round"
     stroke-linejoin="round"
     id="path18"
     style="stroke-dasharray:4,8;stroke-dashoffset:0" />
  <path
     d="M1061.0,149.11651689888373 L1066.0,149.11651689888373 Q1076.0,149.11651689888373,1085.075292427848,153.31640586754085 L1096.924707572152,158.80011103134288 Q1106.0,163.0,1116.0,163.0 L1147.0,163.0"
     stroke="#2196F3"
     stroke-width="4.0"
     fill="none"
     stroke-linecap="round"
     stroke-linejoin="round"
     id="path19" />
  <path
     d="M1061.0,149.11651689888373 L1066.0,149.11651689888373 Q1076.0,149.11651689888373,1085.075292427848,153.31640586754085 L1096.924707572152,158.80011103134288 Q1106.0,163.0,1116.0,163.0 L1147.0,163.0"
     stroke="#2196F3"
     stroke-width="4.0"
     fill="none"
     stroke-linecap="round"
     stroke-linejoin="round"
     id="path20" />
  <path
     d="M196.0,149.11651689888373 L236.0,149.11651689888373"
     stroke="#167204"
     stroke-width="4.0"
     stroke-linecap="round"
     id="path21"
     style="stroke-dasharray:4,8;stroke-dashoffset:0" />
  <path
     d="M322.0,146.11651689888373 L755.0,146.11651689888373"
     stroke="#1e9b05"
     stroke-width="4.0"
     stroke-linecap="round"
     id="path22" />
  <path
     d="M236.0,146.11651689888373 L322.0,146.11651689888373"
     stroke="#1e9b05"
     stroke-width="4.0"
     stroke-linecap="round"
     id="path23" />
  <path
     d="M755.0,146.11651689888373 L841.0,146.11651689888373"
     stroke="#1e9b05"
     stroke-width="4.0"
     stroke-linecap="round"
     id="path24" />
  <path
     d="M921.0,146.11651689888373 L926.0,146.11651689888373 Q936.0,146.11651689888373,942.0799754371075,138.17712783648292 L949.9200245628925,127.9393890624008 Q956.0,120.0,966.0,120.0 L988.5,120.0"
     stroke="#1e9b05"
     stroke-width="4.0"
     fill="none"
     stroke-linecap="round"
     stroke-linejoin="round"
     id="path25" />
  <path
     d="M1061.0,146.11651689888373 L1066.0,146.11651689888373 Q1076.0,146.11651689888373,1083.5423741105224,139.55049886837836 L1098.4576258894776,126.56601803050538 Q1106.0,120.0,1116.0,120.0 L1147.0,120.0"
     stroke="#1e9b05"
     stroke-width="4.0"
     fill="none"
     stroke-linecap="round"
     stroke-linejoin="round"
     id="path26" />
  <path
     d="M196.0,146.11651689888373 L236.0,146.11651689888373"
     stroke="#1e9b05"
     stroke-width="4.0"
     stroke-linecap="round"
     id="path27" />
  <path
     d="M841.0,146.11651689888373 L851.0,146.11651689888373"
     stroke="#1e9b05"
     stroke-width="4.0"
     stroke-linecap="round"
     id="path28" />
  <path
     d="M851.0,146.11651689888373 L921.0,146.11651689888373"
     stroke="#1e9b05"
     stroke-width="4.0"
     stroke-linecap="round"
     id="path29" />
  <path
     d="M632.0,126.0 L786.0,126.0 Q796.0,126.0,803.5423741105224,132.56601803050538 L818.4576258894776,145.55049886837836 Q826.0,152.11651689888373,836.0,152.11651689888373 L841.0,152.11651689888373"
     stroke="#2196F3"
     stroke-width="4.0"
     fill="none"
     stroke-linecap="round"
     stroke-linejoin="round"
     id="path30" />
  <path
     d="M1243.0,120.0 L1303.0,120.0"
     stroke="#1e9b05"
     stroke-width="4.0"
     stroke-linecap="round"
     id="path31" />
  <path
     d="M128.0,120.0 L141.0,120.0 Q151.0,120.0,158.5423741105224,126.56601803050538 L173.4576258894776,139.55049886837836 Q181.0,146.11651689888373,191.0,146.11651689888373 L196.0,146.11651689888373"
     stroke="#1e9b05"
     stroke-width="4.0"
     fill="none"
     stroke-linecap="round"
     stroke-linejoin="round"
     id="path32" />
  <path
     d="M988.5,120.0 L1021.0,120.0"
     stroke="#1e9b05"
     stroke-width="4.0"
     stroke-linecap="round"
     id="path33" />
  <path
     d="M1021.0,120.0 L1031.0,120.0 Q1041.0,120.0,1041.0,130.0 L1041.0,136.11651689888373 Q1041.0,146.11651689888373,1051.0,146.11651689888373 L1061.0,146.11651689888373"
     stroke="#1e9b05"
     stroke-width="4.0"
     fill="none"
     stroke-linecap="round"
     stroke-linejoin="round"
     id="path34" />
  <path
     d="M1147.0,120.0 L1243.0,120.0"
     stroke="#1e9b05"
     stroke-width="4.0"
     stroke-linecap="round"
     id="path35" />
  <rect
     x="316.0"
     y="140.11651689888373"
     width="12.0"
     height="18.0"
     rx="6.0"
     ry="6.0"
     fill="#ffffff"
     stroke="#333333"
     stroke-width="2.0"
     id="rect35" />
  <rect
     x="626.0"
     y="120.0"
     width="12.0"
     height="12.0"
     rx="6.0"
     ry="6.0"
     fill="#ffffff"
     stroke="#333333"
     stroke-width="2.0"
     id="rect36" />
  <rect
     x="626.0"
     y="172.23303379776746"
     width="12.0"
     height="12.0"
     rx="6.0"
     ry="6.0"
     fill="#ffffff"
     stroke="#333333"
     stroke-width="2.0"
     id="rect37" />
  <rect
     x="626.0"
     y="183.11651689888373"
     width="12.0"
     height="12.0"
     rx="6.0"
     ry="6.0"
     fill="#ffffff"
     stroke="#333333"
     stroke-width="2.0"
     id="rect38" />
  <rect
     x="749.0"
     y="140.11651689888373"
     width="12.0"
     height="15.0"
     rx="6.0"
     ry="6.0"
     fill="#ffffff"
     stroke="#333333"
     stroke-width="2.0"
     id="rect39" />
  <rect
     x="982.5"
     y="114.0"
     width="12.0"
     height="12.0"
     rx="6.0"
     ry="6.0"
     fill="#ffffff"
     stroke="#333333"
     stroke-width="2.0"
     id="rect40" />
  <rect
     x="1141.0"
     y="157.0"
     width="12.0"
     height="12.0"
     rx="6.0"
     ry="6.0"
     fill="#ffffff"
     stroke="#333333"
     stroke-width="2.0"
     id="rect41" />
  <rect
     x="1237.0"
     y="114.0"
     width="12.0"
     height="15.0"
     rx="6.0"
     ry="6.0"
     fill="#ffffff"
     stroke="#333333"
     stroke-width="2.0"
     id="rect42" />
  <path
     d="m 1232.8754,133.15507 h 18 l 8,8 v 22 q 0,2 -2,2 h -24 q -2,0 -2,-2 v -28 q 0,-2 2,-2 z"
     fill="#ffffff"
     stroke="#333333"
     stroke-width="1.5"
     stroke-linejoin="round"
     id="path42" />
  <path
     d="m 1250.4521,133.3764 v 8 h 8 z"
     fill="#333333"
     opacity="0.15"
     stroke="none"
     id="path43" />
  <path
     d="m 1250.4521,133.3764 v 8 h 8"
     fill="none"
     stroke="#333333"
     stroke-width="0.9"
     id="path44" />
  <text
     x="1244.8754"
     y="150.35507"
     font-size="7.5px"
     fill="#000000"
     font-family="'Helvetica Neue', Helvetica, Arial, sans-serif"
     font-weight="bold"
     text-anchor="middle"
     dy="2.25"
     id="text44">JSON</text>
  <rect
     x="1297.0"
     y="114.0"
     width="12.0"
     height="12.0"
     rx="6.0"
     ry="6.0"
     fill="#ffffff"
     stroke="#333333"
     stroke-width="2.0"
     id="rect44" />
  <path
     d="M1317.0,104.0 L1335.0,104.0 L1343.0,112.0 L1343.0,134.0 Q1343.0,136.0,1341.0,136.0 L1317.0,136.0 Q1315.0,136.0,1315.0,134.0 L1315.0,106.0 Q1315.0,104.0,1317.0,104.0 Z"
     fill="#ffffff"
     stroke="#333333"
     stroke-width="1.5"
     stroke-linejoin="round"
     id="path45" />
  <path
     d="M1335.0,104.0 L1335.0,112.0 L1343.0,112.0 Z"
     fill="#333333"
     opacity="0.15"
     stroke="none"
     id="path46" />
  <path
     d="M1335.0,104.0 L1335.0,112.0 L1343.0,112.0"
     fill="none"
     stroke="#333333"
     stroke-width="0.8999999999999999"
     id="path47" />
  <text
     x="1329.0"
     y="121.2"
     font-size="7.5"
     fill="#000000"
     font-family="'Helvetica Neue', Helvetica, Arial, sans-serif"
     font-weight="bold"
     text-anchor="middle"
     dy="0.3em"
     id="text47">HTML</text>
  <rect
     x="122.0"
     y="114.0"
     width="12.0"
     height="12.0"
     rx="6.0"
     ry="6.0"
     fill="#ffffff"
     stroke="#333333"
     stroke-width="2.0"
     id="rect47" />
  <path
     d="M90.0,104.0 L108.0,104.0 L116.0,112.0 L116.0,134.0 Q116.0,136.0,114.0,136.0 L90.0,136.0 Q88.0,136.0,88.0,134.0 L88.0,106.0 Q88.0,104.0,90.0,104.0 Z"
     fill="#ffffff"
     stroke="#333333"
     stroke-width="1.5"
     stroke-linejoin="round"
     id="path48" />
  <path
     d="M108.0,104.0 L108.0,112.0 L116.0,112.0 Z"
     fill="#333333"
     opacity="0.15"
     stroke="none"
     id="path49" />
  <path
     d="M108.0,104.0 L108.0,112.0 L116.0,112.0"
     fill="none"
     stroke="#333333"
     stroke-width="0.8999999999999999"
     id="path50" />
  <text
     x="102.0"
     y="121.2"
     font-size="7.5"
     fill="#000000"
     font-family="'Helvetica Neue', Helvetica, Arial, sans-serif"
     font-weight="bold"
     text-anchor="middle"
     dy="0.3em"
     id="text50">TSV</text>
  <rect
     x="122.0"
     y="157.0"
     width="12.0"
     height="12.0"
     rx="6.0"
     ry="6.0"
     fill="#ffffff"
     stroke="#333333"
     stroke-width="2.0"
     id="rect50" />
  <path
     d="m 90,145 h 18 l 8,8 v 22 q 0,2 -2,2 H 90 q -2,0 -2,-2 v -28 q 0,-2 2,-2 z"
     fill="#ffffff"
     stroke="#333333"
     stroke-width="1.5"
     stroke-linejoin="round"
     id="path51" />
  <path
     d="m 108,145 v 8 h 8 z"
     fill="#333333"
     opacity="0.15"
     stroke="none"
     id="path52" />
  <path
     d="m 108,145 v 8 h 8"
     fill="none"
     stroke="#333333"
     stroke-width="0.9"
     id="path53" />
  <text
     x="102"
     y="162.2"
     font-size="7.5px"
     fill="#000000"
     font-family="'Helvetica Neue', Helvetica, Arial, sans-serif"
     font-weight="bold"
     text-anchor="middle"
     dy="2.25"
     id="text53">TSV</text>
  <text
     x="322.0"
     y="132.11651689888373"
     font-size="14.0"
     fill="#333333"
     font-family="'Helvetica Neue', Helvetica, Arial, sans-serif"
     font-weight="bold"
     text-anchor="middle"
     dominant-baseline="auto"
     id="text54">Allele Call</text>
  <text
     x="1147.0"
     y="174.0"
     font-size="14.0"
     fill="#333333"
     font-family="'Helvetica Neue', Helvetica, Arial, sans-serif"
     font-weight="bold"
     text-anchor="middle"
     dominant-baseline="hanging"
     id="text55">Logs</text>
  <text
     x="988.5"
     y="106.0"
     font-size="14.0"
     fill="#333333"
     font-family="'Helvetica Neue', Helvetica, Arial, sans-serif"
     font-weight="bold"
     text-anchor="middle"
     dominant-baseline="auto"
     id="text56">ReporTree</text>
  <text
     x="158.59711"
     y="101.24638"
     font-size="14px"
     fill="#333333"
     font-family="'Helvetica Neue', Helvetica, Arial, sans-serif"
     font-weight="bold"
     text-anchor="middle"
     dominant-baseline="hanging"
     id="text57">Assemblies</text>
  <text
     x="146.53477"
     y="184.69566"
     font-size="14px"
     fill="#333333"
     font-family="'Helvetica Neue', Helvetica, Arial, sans-serif"
     font-weight="bold"
     text-anchor="middle"
     dominant-baseline="auto"
     id="text58">Profiles</text>
  <text
     x="632.0"
     y="112.0"
     font-size="14.0"
     fill="#333333"
     font-family="'Helvetica Neue', Helvetica, Arial, sans-serif"
     font-weight="bold"
     text-anchor="middle"
     dominant-baseline="auto"
     id="text59">Extract Alleles</text>
  <text
     x="602.28552"
     y="160.52144"
     font-size="14px"
     fill="#333333"
     font-family="'Helvetica Neue', Helvetica, Arial, sans-serif"
     font-weight="bold"
     text-anchor="middle"
     dominant-baseline="hanging"
     id="text61">Allele Call Evaluator</text>
  <text
     x="632.0"
     y="200.11651689888373"
     font-size="14.0"
     fill="#333333"
     font-family="'Helvetica Neue', Helvetica, Arial, sans-serif"
     font-weight="bold"
     text-anchor="middle"
     dominant-baseline="hanging"
     id="text62">Join Profiles</text>
  <text
     x="754.70581"
     y="167.71507"
     font-size="14px"
     fill="#333333"
     font-family="'Helvetica Neue', Helvetica, Arial, sans-serif"
     font-weight="bold"
     text-anchor="middle"
     dominant-baseline="auto"
     id="text63">Extract cgMLST</text>
  <rect
     x="60.0"
     y="251.11651689888373"
     width="192.0"
     height="96.0"
     rx="6"
     ry="6"
     fill="rgba(255, 255, 255, 0.8)"
     id="rect64"
     style="fill:#e6e6e6" />
  <path
     d="M72.0,275.11651689888373 L96.0,275.11651689888373"
     stroke="#1e9b05"
     stroke-width="4.0"
     stroke-linecap="round"
     id="path64" />
  <text
     x="108.0"
     y="275.11651689888373"
     font-size="16.0"
     fill="#333333"
     font-family="'Helvetica Neue', Helvetica, Arial, sans-serif"
     dy="0.3em"
     id="text65">Main</text>
  <path
     d="M72.0,299.11651689888373 L96.0,299.11651689888373"
     stroke="#167204"
     stroke-width="4.0"
     stroke-linecap="round"
     id="path65" />
  <text
     x="108.0"
     y="299.11651689888373"
     font-size="16.0"
     fill="#333333"
     font-family="'Helvetica Neue', Helvetica, Arial, sans-serif"
     dy="0.3em"
     id="text66">Alt</text>
  <path
     d="M72.0,323.11651689888373 L96.0,323.11651689888373"
     stroke="#2196F3"
     stroke-width="4.0"
     stroke-linecap="round"
     id="path66" />
  <text
     x="108.0"
     y="323.11651689888373"
     font-size="16.0"
     fill="#333333"
     font-family="'Helvetica Neue', Helvetica, Arial, sans-serif"
     dy="0.3em"
     id="text67">Quality Control</text>
</svg>
