<?xml version="1.0" encoding="UTF-8"?>
<svg xmlns="http://www.w3.org/2000/svg" xmlns:xlink="http://www.w3.org/1999/xlink"
     width="1413" height="371" viewBox="0 0 1413 371">
<defs>
</defs>
<style>@media (prefers-color-scheme: dark) {
    .nf-metro-section-label { fill: #d0d0d0; }
    .nf-metro-section-num-circle { fill: #777777; }
    .nf-metro-title { fill: #ffffff; }
}
</style>
<text x="60.0" y="30.0" font-size="26.0" fill="#111111" font-family="'Helvetica Neue', Helvetica, Arial, sans-serif" font-weight="bold" class="nf-metro-title">Bella Pipeline</text>
<rect x="236.0" y="85.0" width="605.0" height="136.11651689888373" rx="8" ry="8" fill="#ededed" stroke="#e6e6e6" stroke-width="1.0" />
<circle cx="247.0" cy="70.0" r="11" fill="#333333" class="nf-metro-section-num-circle" />
<text x="247.0" y="70.0" font-size="12" fill="#ffffff" font-family="'Helvetica Neue', Helvetica, Arial, sans-serif" font-weight="bold" text-anchor="middle" dy="0.3em">1</text>
<text x="263.0" y="70.0" font-size="17.0" fill="#666666" font-family="'Helvetica Neue', Helvetica, Arial, sans-serif" font-weight="bold" dy="0.3em" class="nf-metro-section-label">Allele Calling</text>
<rect x="921.0" y="85.0" width="112.0" height="70.0" rx="8" ry="8" fill="#ededed" stroke="#e6e6e6" stroke-width="1.0" />
<circle cx="932.0" cy="70.0" r="11" fill="#333333" class="nf-metro-section-num-circle" />
<text x="932.0" y="70.0" font-size="12" fill="#ffffff" font-family="'Helvetica Neue', Helvetica, Arial, sans-serif" font-weight="bold" text-anchor="middle" dy="0.3em">2</text>
<text x="948.0" y="70.0" font-size="17.0" fill="#666666" font-family="'Helvetica Neue', Helvetica, Arial, sans-serif" font-weight="bold" dy="0.3em" class="nf-metro-section-label">Clustering</text>
<rect x="1061.0" y="85.0" width="292.0" height="110.0" rx="8" ry="8" fill="#ededed" stroke="#e6e6e6" stroke-width="1.0" />
<circle cx="1072.0" cy="70.0" r="11" fill="#333333" class="nf-metro-section-num-circle" />
<text x="1072.0" y="70.0" font-size="12" fill="#ffffff" font-family="'Helvetica Neue', Helvetica, Arial, sans-serif" font-weight="bold" text-anchor="middle" dy="0.3em">3</text>
<text x="1088.0" y="70.0" font-size="17.0" fill="#666666" font-family="'Helvetica Neue', Helvetica, Arial, sans-serif" font-weight="bold" dy="0.3em" class="nf-metro-section-label">Reporting</text>
<path d="M632.0,189.11651689888373 L652.0,189.11651689888373 Q662.0,189.11651689888373,668.0,181.11651689888373 L686.0,157.11651689888373 Q692.0,149.11651689888373,702.0,149.11651689888373 L755.0,149.11651689888373" stroke="#167204" stroke-width="4.0" fill="none" stroke-linecap="round" stroke-linejoin="round" />
<path d="M322.0,189.11651689888373 L632.0,189.11651689888373" stroke="#167204" stroke-width="4.0" stroke-linecap="round" />
<path d="M632.0,178.23303379776746 L786.0,178.23303379776746 Q796.0,178.23303379776746,803.5423741105224,171.6670157672621 L818.4576258894776,158.6825349293891 Q826.0,152.11651689888373,836.0,152.11651689888373 L841.0,152.11651689888373" stroke="#2196F3" stroke-width="4.0" fill="none" stroke-linecap="round" stroke-linejoin="round" />
<path d="M1147.0,163.0 L1185.0,163.0 Q1195.0,163.0,1201.0,155.0 L1219.0,131.0 Q1225.0,123.0,1235.0,123.0 L1243.0,123.0" stroke="#2196F3" stroke-width="4.0" fill="none" stroke-linecap="round" stroke-linejoin="round" />
<path d="M128.0,163.0 L141.0,163.0 Q151.0,163.0,160.07529242784784,158.80011103134288 L171.92470757215216,153.31640586754085 Q181.0,149.11651689888373,191.0,149.11651689888373 L196.0,149.11651689888373" stroke="#167204" stroke-width="4.0" fill="none" stroke-linecap="round" stroke-linejoin="round" />
<path d="M322.0,152.11651689888373 L361.5,152.11651689888373 Q371.5,152.11651689888373,379.04237411052236,145.55049886837836 L393.95762588947764,132.56601803050538 Q401.5,126.0,411.5,126.0 L632.0,126.0" stroke="#2196F3" stroke-width="4.0" fill="none" stroke-linecap="round" stroke-linejoin="round" />
<path d="M322.0,152.11651689888373 L361.5,152.11651689888373 Q371.5,152.11651689888373,379.04237411052236,158.6825349293891 L393.95762588947764,171.6670157672621 Q401.5,178.23303379776746,411.5,178.23303379776746 L632.0,178.23303379776746" stroke="#2196F3" stroke-width="4.0" fill="none" stroke-linecap="round" stroke-linejoin="round" />
<path d="M841.0,152.11651689888373 L851.0,152.11651689888373" stroke="#2196F3" stroke-width="4.0" stroke-linecap="round" />
<path d="M851.0,152.11651689888373 L851.0,152.11651689888373 Q861.0,152.11651689888373,861.0,162.11651689888373 L861.0,170.0 Q861.0,183.0,874.0,183.0 L1038.0,183.0 Q1051.0,183.0,1051.0,170.0 L1051.0,159.11651689888373 Q1051.0,149.11651689888373,1061.0,149.11651689888373 L1061.0,149.11651689888373" stroke="#2196F3" stroke-width="4.0" fill="none" stroke-linecap="round" stroke-linejoin="round" />
<path d="M851.0,152.11651689888373 L851.0,152.11651689888373 Q861.0,152.11651689888373,861.0,162.11651689888373 L861.0,170.0 Q861.0,183.0,874.0,183.0 L1038.0,183.0 Q1051.0,183.0,1051.0,170.0 L1051.0,159.11651689888373 Q1051.0,149.11651689888373,1061.0,149.11651689888373 L1061.0,149.11651689888373" stroke="#2196F3" stroke-width="4.0" fill="none" stroke-linecap="round" stroke-linejoin="round" />
<path d="M322.0,149.11651689888373 L361.5,149.11651689888373 Q371.5,149.11651689888373,377.5,157.11651689888373 L395.5,181.11651689888373 Q401.5,189.11651689888373,411.5,189.11651689888373 L632.0,189.11651689888373" stroke="#167204" stroke-width="4.0" fill="none" stroke-linecap="round" stroke-linejoin="round" />
<path d="M236.0,149.11651689888373 L241.0,149.11651689888373 Q251.0,149.11651689888373,257.0,157.11651689888373 L275.0,181.11651689888373 Q281.0,189.11651689888373,291.0,189.11651689888373 L322.0,189.11651689888373" stroke="#167204" stroke-width="4.0" fill="none" stroke-linecap="round" stroke-linejoin="round" />
<path d="M1061.0,149.11651689888373 L1066.0,149.11651689888373 Q1076.0,149.11651689888373,1085.075292427848,153.31640586754085 L1096.924707572152,158.80011103134288 Q1106.0,163.0,1116.0,163.0 L1147.0,163.0" stroke="#2196F3" stroke-width="4.0" fill="none" stroke-linecap="round" stroke-linejoin="round" />
<path d="M1061.0,149.11651689888373 L1066.0,149.11651689888373 Q1076.0,149.11651689888373,1085.075292427848,153.31640586754085 L1096.924707572152,158.80011103134288 Q1106.0,163.0,1116.0,163.0 L1147.0,163.0" stroke="#2196F3" stroke-width="4.0" fill="none" stroke-linecap="round" stroke-linejoin="round" />
<path d="M196.0,149.11651689888373 L236.0,149.11651689888373" stroke="#167204" stroke-width="4.0" stroke-linecap="round" />
<path d="M322.0,146.11651689888373 L755.0,146.11651689888373" stroke="#1e9b05" stroke-width="4.0" stroke-linecap="round" />
<path d="M236.0,146.11651689888373 L322.0,146.11651689888373" stroke="#1e9b05" stroke-width="4.0" stroke-linecap="round" />
<path d="M755.0,146.11651689888373 L841.0,146.11651689888373" stroke="#1e9b05" stroke-width="4.0" stroke-linecap="round" />
<path d="M921.0,146.11651689888373 L926.0,146.11651689888373 Q936.0,146.11651689888373,942.0799754371075,138.17712783648292 L949.9200245628925,127.9393890624008 Q956.0,120.0,966.0,120.0 L988.5,120.0" stroke="#1e9b05" stroke-width="4.0" fill="none" stroke-linecap="round" stroke-linejoin="round" />
<path d="M1061.0,146.11651689888373 L1066.0,146.11651689888373 Q1076.0,146.11651689888373,1083.5423741105224,139.55049886837836 L1098.4576258894776,126.56601803050538 Q1106.0,120.0,1116.0,120.0 L1147.0,120.0" stroke="#1e9b05" stroke-width="4.0" fill="none" stroke-linecap="round" stroke-linejoin="round" />
<path d="M196.0,146.11651689888373 L236.0,146.11651689888373" stroke="#1e9b05" stroke-width="4.0" stroke-linecap="round" />
<path d="M841.0,146.11651689888373 L851.0,146.11651689888373" stroke="#1e9b05" stroke-width="4.0" stroke-linecap="round" />
<path d="M851.0,146.11651689888373 L921.0,146.11651689888373" stroke="#1e9b05" stroke-width="4.0" stroke-linecap="round" />
<path d="M632.0,126.0 L786.0,126.0 Q796.0,126.0,803.5423741105224,132.56601803050538 L818.4576258894776,145.55049886837836 Q826.0,152.11651689888373,836.0,152.11651689888373 L841.0,152.11651689888373" stroke="#2196F3" stroke-width="4.0" fill="none" stroke-linecap="round" stroke-linejoin="round" />
<path d="M1243.0,120.0 L1303.0,120.0" stroke="#1e9b05" stroke-width="4.0" stroke-linecap="round" />
<path d="M128.0,120.0 L141.0,120.0 Q151.0,120.0,158.5423741105224,126.56601803050538 L173.4576258894776,139.55049886837836 Q181.0,146.11651689888373,191.0,146.11651689888373 L196.0,146.11651689888373" stroke="#1e9b05" stroke-width="4.0" fill="none" stroke-linecap="round" stroke-linejoin="round" />
<path d="M988.5,120.0 L1021.0,120.0" stroke="#1e9b05" stroke-width="4.0" stroke-linecap="round" />
<path d="M1021.0,120.0 L1031.0,120.0 Q1041.0,120.0,1041.0,130.0 L1041.0,136.11651689888373 Q1041.0,146.11651689888373,1051.0,146.11651689888373 L1061.0,146.11651689888373" stroke="#1e9b05" stroke-width="4.0" fill="none" stroke-linecap="round" stroke-linejoin="round" />
<path d="M1147.0,120.0 L1243.0,120.0" stroke="#1e9b05" stroke-width="4.0" stroke-linecap="round" />
<rect x="316.0" y="140.11651689888373" width="12.0" height="18.0" rx="6.0" ry="6.0" fill="#ffffff" stroke="#333333" stroke-width="2.0" />
<rect x="626.0" y="120.0" width="12.0" height="12.0" rx="6.0" ry="6.0" fill="#ffffff" stroke="#333333" stroke-width="2.0" />
<rect x="626.0" y="172.23303379776746" width="12.0" height="12.0" rx="6.0" ry="6.0" fill="#ffffff" stroke="#333333" stroke-width="2.0" />
<rect x="626.0" y="183.11651689888373" width="12.0" height="12.0" rx="6.0" ry="6.0" fill="#ffffff" stroke="#333333" stroke-width="2.0" />
<rect x="749.0" y="140.11651689888373" width="12.0" height="15.0" rx="6.0" ry="6.0" fill="#ffffff" stroke="#333333" stroke-width="2.0" />
<rect x="982.5" y="114.0" width="12.0" height="12.0" rx="6.0" ry="6.0" fill="#ffffff" stroke="#333333" stroke-width="2.0" />
<rect x="1141.0" y="157.0" width="12.0" height="12.0" rx="6.0" ry="6.0" fill="#ffffff" stroke="#333333" stroke-width="2.0" />
<rect x="1237.0" y="114.0" width="12.0" height="15.0" rx="6.0" ry="6.0" fill="#ffffff" stroke="#333333" stroke-width="2.0" />
<rect x="1297.0" y="114.0" width="12.0" height="12.0" rx="6.0" ry="6.0" fill="#ffffff" stroke="#333333" stroke-width="2.0" />
<rect x="122.0" y="114.0" width="12.0" height="12.0" rx="6.0" ry="6.0" fill="#ffffff" stroke="#333333" stroke-width="2.0" />
<rect x="122.0" y="157.0" width="12.0" height="12.0" rx="6.0" ry="6.0" fill="#ffffff" stroke="#333333" stroke-width="2.0" />
<text x="322.0" y="132.11651689888373" font-size="14.0" fill="#333333" font-family="'Helvetica Neue', Helvetica, Arial, sans-serif" font-weight="bold" text-anchor="middle" dominant-baseline="auto">Allele Call</text>
<text x="1147.0" y="174.0" font-size="14.0" fill="#333333" font-family="'Helvetica Neue', Helvetica, Arial, sans-serif" font-weight="bold" text-anchor="middle" dominant-baseline="hanging">Logs</text>
<text x="988.5" y="106.0" font-size="14.0" fill="#333333" font-family="'Helvetica Neue', Helvetica, Arial, sans-serif" font-weight="bold" text-anchor="middle" dominant-baseline="auto">ReporTree</text>
<text x="128.0" y="106.0" font-size="14.0" fill="#333333" font-family="'Helvetica Neue', Helvetica, Arial, sans-serif" font-weight="bold" text-anchor="middle" dominant-baseline="auto">Assemblies</text>
<text x="128.0" y="174.0" font-size="14.0" fill="#333333" font-family="'Helvetica Neue', Helvetica, Arial, sans-serif" font-weight="bold" text-anchor="middle" dominant-baseline="hanging">Profiles</text>
<text x="632.0" y="112.0" font-size="14.0" fill="#333333" font-family="'Helvetica Neue', Helvetica, Arial, sans-serif" font-weight="bold" text-anchor="middle" dominant-baseline="auto">Extract Alleles</text>
<text x="1243.0" y="106.0" font-size="14.0" fill="#333333" font-family="'Helvetica Neue', Helvetica, Arial, sans-serif" font-weight="bold" text-anchor="middle" dominant-baseline="auto">JSON</text>
<text x="632.0" y="180.23303379776746" font-size="14.0" fill="#333333" font-family="'Helvetica Neue', Helvetica, Arial, sans-serif" font-weight="bold" text-anchor="middle" dominant-baseline="hanging">Allele Call Evaluator</text>
<text x="632.0" y="200.11651689888373" font-size="14.0" fill="#333333" font-family="'Helvetica Neue', Helvetica, Arial, sans-serif" font-weight="bold" text-anchor="middle" dominant-baseline="hanging">Join Profiles</text>
<text x="755.0" y="132.11651689888373" font-size="14.0" fill="#333333" font-family="'Helvetica Neue', Helvetica, Arial, sans-serif" font-weight="bold" text-anchor="middle" dominant-baseline="auto">Extract cgMLST</text>
<text x="1303.0" y="131.0" font-size="14.0" fill="#333333" font-family="'Helvetica Neue', Helvetica, Arial, sans-serif" font-weight="bold" text-anchor="middle" dominant-baseline="hanging">HTML</text>
<rect x="60.0" y="251.11651689888373" width="192.0" height="96.0" rx="6" ry="6" fill="rgba(255, 255, 255, 0.8)" />
<path d="M72.0,275.11651689888373 L96.0,275.11651689888373" stroke="#1e9b05" stroke-width="4.0" stroke-linecap="round" />
<text x="108.0" y="275.11651689888373" font-size="16.0" fill="#333333" font-family="'Helvetica Neue', Helvetica, Arial, sans-serif" dy="0.3em">Main</text>
<path d="M72.0,299.11651689888373 L96.0,299.11651689888373" stroke="#167204" stroke-width="4.0" stroke-linecap="round" />
<text x="108.0" y="299.11651689888373" font-size="16.0" fill="#333333" font-family="'Helvetica Neue', Helvetica, Arial, sans-serif" dy="0.3em">Alt</text>
<path d="M72.0,323.11651689888373 L96.0,323.11651689888373" stroke="#2196F3" stroke-width="4.0" stroke-linecap="round" />
<text x="108.0" y="323.11651689888373" font-size="16.0" fill="#333333" font-family="'Helvetica Neue', Helvetica, Arial, sans-serif" dy="0.3em">Quality Control</text>
<text x="1383.0" y="363.0" font-size="8" fill="rgba(150, 150, 150, 0.6)" font-family="'Helvetica Neue', Helvetica, Arial, sans-serif" text-anchor="end">created with nf-metro v0.6.1</text>
</svg>
